<?xml version="1.0" encoding="UTF-8" standalone="no"?>
<!-- Created with Inkscape (http://www.inkscape.org/) -->

<svg
   xmlns:dc="http://purl.org/dc/elements/1.1/"
   xmlns:cc="http://creativecommons.org/ns#"
   xmlns:rdf="http://www.w3.org/1999/02/22-rdf-syntax-ns#"
   xmlns:svg="http://www.w3.org/2000/svg"
   xmlns="http://www.w3.org/2000/svg"
   xmlns:sodipodi="http://sodipodi.sourceforge.net/DTD/sodipodi-0.dtd"
   xmlns:inkscape="http://www.inkscape.org/namespaces/inkscape"
   id="svg3390"
   version="1.1"
   inkscape:version="0.91 r13725"
   width="185.7"
   height="62.586929"
   viewBox="0 0 185.7 62.58693"
   sodipodi:docname="logo.svg">
  <metadata
     id="metadata3396">
    <rdf:RDF>
      <cc:Work
         rdf:about="">
        <dc:format>image/svg+xml</dc:format>
        <dc:type
           rdf:resource="http://purl.org/dc/dcmitype/StillImage" />
        <dc:title></dc:title>
      </cc:Work>
    </rdf:RDF>
  </metadata>
  <defs
     id="defs3394" />
  <sodipodi:namedview
     pagecolor="#ffffff"
     bordercolor="#666666"
     borderopacity="1"
     objecttolerance="10"
     gridtolerance="10"
     guidetolerance="10"
     inkscape:pageopacity="0"
     inkscape:pageshadow="2"
     inkscape:window-width="1695"
     inkscape:window-height="859"
     id="namedview3392"
     showgrid="false"
     fit-margin-top="0"
     fit-margin-left="0"
     fit-margin-right="0"
     fit-margin-bottom="0"
     inkscape:zoom="2.0966881"
     inkscape:cx="-3.3917894"
     inkscape:cy="86.130195"
     inkscape:window-x="97"
     inkscape:window-y="57"
     inkscape:window-maximized="0"
     inkscape:current-layer="svg3390" />
  <path
     style="fill:#ffffff"
     d="m 121.16468,62.255921 c -2.52483,-0.94828 -4.74843,-2.92157 -5.95312,-5.28294 -0.80084,-1.56979 -1.51229,-4.33341 -1.50875,-5.8607 l 0.003,-1.21197 0.8606,1.5 c 4.23441,7.38044 14.54332,7.74375 21.6212,0.76197 3.53643,-3.48841 5.75959,-7.23826 7.6723,-12.94097 0.73727,-2.19781 1.34039,-4.131325 1.34039,-4.2967 0,-0.165375 -0.87048,0.653073 -1.93439,1.818774 -2.31849,2.540306 -5.35504,4.880196 -9.01561,6.947206 -2.23745,1.26342 -3.10443,1.57934 -5.06071,1.84411 -5.61006,0.75928 -9.33568,-2.14194 -9.72556,-7.57351 l -0.14637,-2.039116 -0.90419,1.589115 c -1.31568,2.312331 -4.27311,5.084811 -6.69774,6.278891 -1.89382,0.93265 -2.27072,1.01023 -4.90838,1.01023 -2.4694,0 -3.08893,-0.10869 -4.566,-0.80106 -4.571952,-2.14306 -6.746862,-6.77142 -5.960102,-12.683526 0.83044,-6.240348 4.486602,-13.585884 8.892322,-17.865417 0.93426,-0.9075 1.64872,-1.511205 1.58769,-1.34157 -0.061,0.169638 -0.87143,1.722138 -1.80089,3.45 -3.435,6.385641 -4.89588,10.985265 -4.90436,15.44157 -0.005,2.684988 0.0825,3.179637 0.8344,4.710783 1.72583,3.51445 5.11435,5.55746 8.73545,5.2668 4.33438,-0.34792 9.45605,-4.51776 10.2285,-8.327583 0.29257,-1.442985 2.02319,-5.147985 3.35047,-7.172838 1.42486,-2.173731 6.06631,-6.795342 8.26593,-8.230599 4.84307,-3.160128 9.76064,-4.466637 13.12954,-3.488292 1.77686,0.516012 3.39138,1.853718 4.3236,3.582321 1.13005,2.095419 1.30636,4.652658 0.64699,9.383772 -0.51563,3.699678 -2.80601,12.208399 -4.37648,16.258549 -3.39619,8.75853 -9.71504,16.00093 -16.30518,18.68833 -2.2509,0.9179 -6.06746,1.20664 -7.72425,0.58437 z m 11.35201,-20.75867 c 0.83908,-0.24917 2.31483,-1.02756 3.27945,-1.72973 0.96462,-0.70217 2.13436,-1.51997 2.59941,-1.81733 1.66958,-1.067534 5.25225,-4.74107 6.63771,-6.806066 1.85814,-2.769516 2.61741,-5.338617 2.65799,-8.993817 0.0382,-3.438639 -0.37666,-4.417503 -2.4328,-5.740359 -1.34799,-0.867255 -1.52508,-0.901449 -4.12525,-0.796578 -3.24946,0.131061 -4.92148,0.83241 -7.95853,3.338325 -2.26626,1.869915 -5.41072,5.617236 -6.4243,7.655961 -1.77073,3.561651 -2.63609,8.393724 -1.97405,11.022894 0.48226,1.91524 1.3625,3.07531 2.844,3.74813 1.50057,0.68148 2.88776,0.71507 4.89637,0.11857 z M 0,46.899431 c 0,-0.0537 0.70391,-0.53078 1.56424,-1.06015 C 7.82623,41.986241 12.50163,33.98844 13.81845,24.877086 14.29949,21.548715 14.01299,15.824004 13.20906,12.700308 12.18022,8.70273 9.9419,4.455495 7.37011,1.620813 6.78155,0.97209 6.3,0.405669 6.3,0.362103 c 0,-0.222663 3.84105,2.133981 4.77228,2.927988 3.22391,2.748864 6.0941,7.584369 7.27723,12.260217 C 21.23841,26.967522 15.58787,40.331211 5.85,45.112001 4.08977,45.976171 0,47.225781 0,46.899431 Z m 95.216518,-0.42297 c -2.57211,-0.9262 -4.35601,-2.13202 -6.89276,-4.65913 -2.51567,-2.50612 -4.42163,-5.392702 -5.40904,-8.192023 -0.30556,-0.86625 -0.62512,-1.572855 -0.71014,-1.57023 -0.085,0.0027 -0.7953,1.000872 -1.5784,2.218335 -2.99439,4.655328 -8.16074,9.169978 -11.69458,10.219418 -5.89491,1.75059 -10.60004,-1.56053 -10.96938,-7.719431 -0.1822,-3.038421 0.32135,-5.499366 1.75309,-8.567568 3.3272,-7.130142 10.76829,-12.602211 19.74067,-14.516988 1.59171,-0.339684 3.04933,-0.657924 3.23915,-0.707199 0.18983,-0.04927 0.77786,-0.942732 1.30674,-1.985463 2.45328,-4.836894 6.87098,-8.939916 11.24635,-10.445262 L 96.849488,0 94.618458,2.119263 c -3.72127,3.534846 -6.08972,7.652556 -7.5508,13.127601 -0.67086,2.51388 -0.7643,3.478203 -0.78519,8.103444 -0.0264,5.844528 0.42145,8.389245 2.249,12.77922 1.61288,3.874293 4.864,8.165803 7.91853,10.452523 0.77028,0.57665 0.62709,0.5644 -1.23348,-0.10559 z m -22.82457,-6.43879 c 2.2909,-1.12697 4.47924,-3.198433 6.31546,-5.978158 2.6985,-4.085067 2.91882,-4.656519 2.58387,-6.701772 -0.53029,-3.238053 -0.23659,-7.742481 0.75357,-11.557407 0.20491,-0.789498 0.19059,-0.79812 -1.09361,-0.658626 -6.31189,0.685626 -13.18426,5.46969 -15.83466,11.022981 -2.43471,5.101362 -2.76469,10.183959 -0.83722,12.895582 1.48227,2.08529 4.99916,2.509 8.11259,0.9774 z m -46.732468,5.78082 c 0.13655,-0.23 0.53654,-0.89068 0.88886,-1.46818 2.202298,-3.60988 3.264238,-7.882125 3.243788,-13.050003 -0.019,-4.788522 -0.64337,-7.437831 -2.73536,-11.605587 l -1.458448,-2.90559 1.22584,0.845001 c 1.622418,1.118373 4.099598,3.765066 5.001548,5.343795 0.39836,0.697269 0.82207,1.268799 0.94158,1.270071 0.11951,0.0012 0.44292,-0.43644 0.71869,-0.97269 0.68426,-1.33059 2.81018,-4.041768 4.21009,-5.369118 4.09687,-3.884517 9.79734,-5.469546 13.45393,-3.740895 1.83766,0.868758 2.90356,1.969941 3.80891,3.935013 0.61501,1.334883 0.68814,1.929306 0.66436,5.4 -0.0229,3.338538 -0.14452,4.288467 -0.84494,6.59835 -2.06972,6.8256 -6.0902,12.984203 -9.90471,15.172103 -2.21381,1.26979 -2.51629,1.07872 -0.86353,-0.54545 2.87167,-2.82198 5.31504,-7.398585 6.58776,-12.339339 0.60718,-2.357097 0.72483,-3.438354 0.64229,-5.903034 -0.0904,-2.699637 -0.20574,-3.230052 -1.09536,-5.037138 -1.40301,-2.849916 -2.65195,-3.645492 -5.72288,-3.645492 -1.89354,0 -2.56359,0.143223 -4.02334,0.860001 -1.91764,0.941604 -5.01936,3.671961 -6.3458,5.586018 -0.79893,1.152846 -0.82365,1.284378 -0.46585,2.478603 1.74295,5.817453 0.28243,11.535241 -4.13016,16.169141 -1.95172,2.04961 -4.395058,3.93133 -3.797268,2.92442 z M 159.75,44.048341 c -9.23417,-3.0759 -10.13235,-14.514241 -1.83089,-23.316637 4.64392,-4.924152 10.84752,-7.589397 16.76845,-7.204209 3.59015,0.233559 5.64917,1.107042 7.88869,3.34656 2.36517,2.365167 3.12375,4.260774 3.12375,7.805907 0,5.122893 -2.29976,9.824583 -6.84345,13.990909 -2.49406,2.28691 -5.19082,3.89953 -8.30655,4.96715 -3.27161,1.12104 -8.11404,1.30502 -10.8,0.41032 z m 10.72632,-2.18533 c 7.22833,-3.58225 12.51135,-13.470714 10.90008,-20.402169 -1.0964,-4.716516 -4.66915,-7.187016 -8.99247,-6.218136 -5.69629,1.276563 -10.91806,6.563439 -13.30296,13.468824 -0.65132,1.885842 -0.79338,2.843331 -0.80696,5.438778 -0.015,2.862531 0.0606,3.307617 0.82754,4.877113 1.43244,2.93119 3.64465,4.19866 7.02477,4.02478 1.75424,-0.0902 2.59787,-0.32087 4.35,-1.18919 z M 107.54666,8.500308 c 0.37923,-4.274463 1.89435,-7.65 3.43374,-7.65 0.64416,0 3.3196,2.362746 3.3196,2.931615 0,0.183957 -0.89164,1.005789 -1.98141,1.826295 -1.08977,0.820509 -2.51875,2.211888 -3.1755,3.091962 -1.84002,2.465688 -1.83299,2.466567 -1.59643,-0.199872 z"
     id="path3416"
     inkscape:connector-curvature="0" />
</svg>
