<?xml version="1.0" encoding="UTF-8"?>
<svg width="1195px" height="342px" viewBox="0 0 1195 342" version="1.1" xmlns="http://www.w3.org/2000/svg" xmlns:xlink="http://www.w3.org/1999/xlink">
    <!-- Generator: Sketch 59.1 (86144) - https://sketch.com -->
    <title>Untitled</title>
    <desc>Created with Sketch.</desc>
    <defs>
        <polyline id="path-1" points="0.913 1.461 0 45.96 0 341 1195 341 1195 0.045"></polyline>
        <polyline id="path-3" points="0.913 1.461 0 45.96 0 341 1195 341 1195 0.045"></polyline>
    </defs>
    <g id="Page-1" stroke="none" stroke-width="1" fill="none" fill-rule="evenodd">
        <polyline id="Stroke-1" stroke="#000000" stroke-width="9" points="219.5259 127.8672 116.5259 127.8672 116.5259 239.8672 219.5259 239.8672"></polyline>
        <line x1="219.5259" y1="183.8672" x2="116.5259" y2="183.8672" id="Stroke-2" stroke="#000000" stroke-width="9"></line>
        <polyline id="Stroke-3" stroke="#000000" stroke-width="9" points="509 128 404 128 404 240 509 240"></polyline>
        <line x1="509" y1="184" x2="404" y2="184" id="Stroke-4" stroke="#000000" stroke-width="9"></line>
        <line x1="423.8813" y1="88" x2="257.2713" y2="88" id="Stroke-5" stroke="#000000" stroke-width="9"></line>
        <line x1="1130.2139" y1="87.666" x2="960.0679" y2="87.666" id="Stroke-6" stroke="#000000" stroke-width="9"></line>
        <polyline id="Stroke-7" stroke="#000000" stroke-width="9" points="274 122.8599 274 280.9999 386.369 280.9999"></polyline>
        <line x1="340" y1="91" x2="340" y2="245.183" id="Stroke-8" stroke="#000000" stroke-width="9"></line>
        <line x1="736.999" y1="122.8599" x2="736.999" y2="245.1829" id="Stroke-9" stroke="#000000" stroke-width="9"></line>
        <g id="Group-12">
            <mask id="mask-2" fill="white">
                <use xlink:href="#path-1"></use>
            </mask>
            <g id="Clip-11"></g>
            <path d="M561,245 L561,127.999773 C567,127.999773 607.334,128.093 640,127.999773 C693.216,127.849 692.797,202.917 640,203 C607.333,203.052 567.667,203 563,203" id="Stroke-10" stroke="#000000" stroke-width="9" mask="url(#mask-2)"></path>
        </g>
        <g id="Group-15">
            <mask id="mask-4" fill="white">
                <use xlink:href="#path-3"></use>
            </mask>
            <g id="Clip-14"></g>
            <line x1="642.4355" y1="202.6748" x2="682.2495" y2="242.9998" id="Stroke-13" stroke="#000000" stroke-width="9" mask="url(#mask-4)"></line>
        </g>
        <path d="M792.9785,122.8599 C792.9785,128.8599 792.9165,156.3339 792.9995,192.9999 C793.1525,259.1879 921.4375,259.1939 921.000619,192.9999 C920.7575,156.3639 920.8745,128.8599 920.8745,122.8599" id="Stroke-16" stroke="#000000" stroke-width="9"></path>
        <line x1="243.5474" y1="281.2568" x2="99.9024" y2="281.2568" id="Stroke-20" stroke="#000000" stroke-width="9"></line>
        <polygon id="Fill-21" fill="#000000" points="968.2217 245.0029 977.5767 245.0029 977.5767 144.1949 1039.7927 244.9449 1046.6647 244.9449 1107.9877 144.1949 1107.9877 245.0029 1117.0597 245.0029 1117.0597 122.7829 1108.9717 122.7829 1043.6407 234.2309 975.8757 122.7829 968.2217 122.7829"></polygon>
        <polygon id="Stroke-22" stroke="#000000" stroke-width="0.25" stroke-linejoin="round" points="968.2217 245.0029 977.5767 245.0029 977.5767 144.1949 1039.7927 244.9449 1046.6647 244.9449 1107.9877 144.1949 1107.9877 245.0029 1117.0597 245.0029 1117.0597 122.7829 1108.9717 122.7829 1043.6407 234.2309 975.8757 122.7829 968.2217 122.7829"></polygon>
        <line x1="1130.4463" y1="281.2568" x2="410.3643" y2="281.2568" id="Stroke-23" stroke="#000000" stroke-width="9"></line>
        <line x1="233.9683" y1="88.2964" x2="100.3233" y2="88.2964" id="Stroke-24" stroke="#000000" stroke-width="9"></line>
        <line x1="933.6426" y1="88.2964" x2="447.6436" y2="88.2964" id="Stroke-25" stroke="#000000" stroke-width="9"></line>
    </g>
</svg>