<?xml version="1.0" encoding="UTF-8"?>
<svg width="989px" height="332px" viewBox="0 0 989 332" version="1.1" xmlns="http://www.w3.org/2000/svg" xmlns:xlink="http://www.w3.org/1999/xlink">
    <!-- Generator: Sketch 53.2 (72643) - https://sketchapp.com -->
    <title>Group 3</title>
    <desc>Created with Sketch.</desc>
    <g id="Page-1" stroke="none" stroke-width="1" fill="none" fill-rule="evenodd">
        <g id="Group-3" transform="translate(10.000000, 7.000000)">
            <rect id="Rectangle" stroke="#000000" stroke-width="24" x="12" y="12" width="291" height="291"></rect>
            <polygon id="Path" fill="#000000" fill-rule="nonzero" points="192.077603 83 192.077603 106.680287 103.051081 106.680287 103.051081 151.541935 186.61002 151.541935 186.61002 175.341219 103.051081 175.341219 103.051081 224.843728 196 224.843728 196 249 75 249 75 83"></polygon>
            <polygon id="Path" fill="#000000" fill-rule="nonzero" points="251 83 251 249 223 249 223 83"></polygon>
            <g id="Group-2" transform="translate(325.000000, 83.000000)" fill="#000000" fill-rule="nonzero">
                <path d="M45.891709,12 L45.891709,45.1411229 L68.357022,45.1411229 L68.357022,67.9848255 L45.891709,67.9848255 L45.891709,133.556904 C45.891709,136.871033 46.672581,139.632766 48.2343486,141.842185 C49.7961161,144.051604 51.9785534,145.156297 54.7817259,145.156297 C55.662723,145.156297 57.4246907,145.018211 60.0676819,144.742033 C62.7106731,144.465856 66.3547427,143.420343 71,141.605463 L71,163.620637 C66.0343801,165.514425 61.3491478,166.717752 56.9441624,167.230653 C52.5391771,167.743553 48.8550628,168 45.891709,168 C42.1274487,168 38.5234239,167.250387 35.0795262,165.751138 C31.6356286,164.251889 28.6122522,162.141137 26.0093063,159.418816 C23.4063604,156.696496 21.3440572,153.402144 19.822335,149.53566 C18.3006128,145.669176 17.5397631,141.368764 17.5397631,136.634294 L17.5397631,67.9848255 L0,67.9848255 L0,45.1411229 L17.5397631,45.1411229 L17.5397631,12 L45.891709,12 Z" id="Path"></path>
                <path d="M108.11877,112.502836 C108.518206,116.869587 109.516782,121.017939 111.114528,124.948015 C112.712274,128.878091 114.749369,132.331743 117.225875,135.309074 C119.702381,138.286404 122.57828,140.648384 125.853659,142.395085 C129.129037,144.141786 132.644025,145.015123 136.398727,145.015123 C143.348921,145.015123 149.120691,143.129508 153.71421,139.358223 C158.307729,135.586938 161.962517,129.930094 164.678685,122.387524 L190.801697,122.387524 C189.203951,129.612512 186.627625,136.04345 183.072641,141.680529 C179.517656,147.317609 175.303665,152.081266 170.430541,155.971645 C165.557416,159.862023 160.185077,162.839309 154.313362,164.903592 C148.441646,166.967874 142.390275,168 136.159067,168 C127.371465,168 119.462743,166.253326 112.432662,162.759924 C105.402581,159.266523 99.4111241,154.58226 94.4581124,148.706994 C89.5051007,142.831729 85.6905401,135.983971 83.014316,128.163516 C80.338092,120.343061 79,112.105903 79,103.451796 C79,95.3534567 80.338092,87.5926647 83.014316,80.1691871 C85.6905401,72.7457096 89.5051007,66.1956806 94.4581124,60.5189036 C99.4111241,54.8421266 105.422552,50.3365006 112.492577,47.0018904 C119.562602,43.6672801 127.491296,42 136.278897,42 C144.746949,42 152.416014,43.5283401 159.28632,46.5850662 C166.156627,49.6417922 172.028254,53.8298411 176.901379,59.1493384 C181.774503,64.4688357 185.509178,70.7608332 188.105514,78.0255198 C190.701851,85.2902065 192,93.1303927 192,101.546314 L192,112.502836 L108.11877,112.502836 Z M163,92 C162.601447,88.1121301 161.644935,84.5888008 160.130435,81.4299065 C158.615934,78.2710122 156.663055,75.5373947 154.271739,73.228972 C151.880423,70.9205492 149.050741,69.1386356 145.782609,67.8831776 C142.514476,66.6277196 138.927556,66 135.021739,66 C131.434765,66 128.106899,66.6884666 125.038043,68.0654206 C121.969188,69.4423745 119.25907,71.3052842 116.907609,73.6542056 C114.556148,76.003127 112.603269,78.7569936 111.048913,81.9158879 C109.494557,85.0747821 108.478263,88.4361193 108,92 L163,92 Z" id="Combined-Shape"></path>
                <path d="M212,44.3699422 L237.366025,44.3699422 L237.366025,59.1820809 C241.018115,53.4941912 244.809087,49.2085886 248.739054,46.3251445 C252.669021,43.4417004 256.976042,42 261.660245,42 C263.089324,42 265.391695,42.2962398 268.567426,42.8887283 C271.743157,43.4812168 275.553977,45.0019145 280,47.4508671 L280,71.6242775 C277.062449,70.5182989 274.54175,69.6493288 272.437828,69.017341 C270.333907,68.3853533 268.587281,67.9311189 267.197898,67.6546243 C265.808516,67.3781296 264.736723,67.2201351 263.982487,67.1806358 C263.228251,67.1411366 262.692354,67.1213873 262.374781,67.1213873 C258.881477,67.1213873 255.74549,67.8521122 252.966725,69.3135838 C250.18796,70.7750555 247.845894,72.7104889 245.940455,75.1199422 C244.035017,77.5293955 242.566263,80.3140497 241.534151,83.4739884 C240.502038,86.6339272 239.985989,89.9123144 239.985989,93.3092486 L239.985989,165 L212,165 L212,44.3699422 Z" id="Path"></path>
                <polygon id="Path" points="319 0 319 28 291 28 291 0"></polygon>
                <polygon id="Path" points="319 45 319 166 291 166 291 45"></polygon>
                <path d="M449,165.630058 L420.845614,165.630058 L420.845614,152.00289 C417.823377,155.08383 414.880716,157.651242 412.017544,159.705202 C409.154372,161.759162 406.331008,163.398356 403.547368,164.622832 C400.763729,165.847309 397.940365,166.716279 395.077193,167.229769 C392.214021,167.743259 389.27136,168 386.249123,168 C380.125116,168 374.657334,167.091531 369.845614,165.274566 C365.033894,163.457602 360.918146,160.870441 357.498246,157.513006 C354.078345,154.155571 351.473693,150.126709 349.684211,145.426301 C347.894728,140.725892 347,135.452823 347,129.606936 L347,45 L375.154386,45 L375.154386,127.592486 C375.154386,130.673426 375.571926,133.300085 376.407018,135.472543 C377.242109,137.645001 378.395314,139.42244 379.866667,140.804913 C381.338019,142.187386 383.067826,143.174853 385.05614,143.767341 C387.044454,144.35983 389.191801,144.656069 391.498246,144.656069 C395.156743,144.656069 398.755538,143.787099 402.294737,142.049133 C405.833936,140.311167 408.975425,138.000496 411.719298,135.117052 C414.463172,132.233608 416.670167,128.876223 418.340351,125.044798 C420.010535,121.213372 420.845614,117.164761 420.845614,112.898844 L420.845614,45 L449,45 L449,165.630058 Z" id="Path"></path>
                <path d="M480,44.3699422 L508.204464,44.3699422 L508.204464,57.2861272 C512.984905,51.8352329 517.944539,47.9248673 523.083513,45.5549133 C528.222488,43.1849592 533.182122,42 537.962563,42 C540.830828,42 543.57954,42.2764905 546.208783,42.8294798 C548.838026,43.382469 551.407475,44.429183 553.917207,45.9696532 C556.426938,47.5101233 558.876878,49.6825486 561.267099,52.4869942 C563.657319,55.2914398 566.087341,58.9450642 568.557235,63.4479769 C571.4255,59.3400565 574.393313,55.9036747 577.460763,53.1387283 C580.528213,50.3737819 583.635453,48.161858 586.782577,46.5028902 C589.929701,44.8439223 593.076778,43.6787124 596.223902,43.0072254 C599.371026,42.3357385 602.458348,42 605.485961,42 C611.620861,42 617.178041,43.0862126 622.157667,45.2586705 C627.137294,47.4311284 631.39979,50.4132758 634.945284,54.2052023 C638.490778,57.9971288 641.219573,62.4604753 643.131749,67.5953757 C645.043926,72.7302762 646,78.260086 646,84.1849711 L646,165 L617.915047,165 L617.915047,85.3699422 C617.915047,81.4990173 617.417092,78.2996273 616.421166,75.7716763 C615.425241,73.2437253 614.130558,71.2292946 612.537077,69.7283237 C610.943597,68.2273528 609.170876,67.1608895 607.218862,66.5289017 C605.266849,65.896914 603.294946,65.5809249 601.303096,65.5809249 C598.434831,65.5809249 595.606445,66.2524018 592.817855,67.5953757 C590.029264,68.9383497 587.499651,70.7947858 585.228942,73.1647399 C582.958232,75.5346939 581.125757,78.3193482 579.731461,81.5187861 C578.337166,84.7182241 577.640029,88.1743552 577.640029,91.8872832 L577.640029,165 L549.435565,165 L549.435565,85.3699422 C549.435565,81.4990173 548.93761,78.2996273 547.941685,75.7716763 C546.945759,73.2437253 545.690912,71.2292946 544.177106,69.7283237 C542.663299,68.2273528 541.010088,67.1608895 539.217423,66.5289017 C537.424757,65.896914 535.691873,65.5809249 534.018719,65.5809249 C530.433387,65.5809249 527.06721,66.449895 523.920086,68.1878613 C520.772962,69.9258276 518.044168,72.1377515 515.733621,74.8236994 C513.423075,77.5096473 511.5906,80.4720455 510.236141,83.7109827 C508.881683,86.9499199 508.204464,90.0308139 508.204464,92.9537572 L508.204464,165 L480,165 L480,44.3699422 Z" id="Path"></path>
            </g>
            <g id="Group" transform="translate(216.000000, 25.000000)" fill="#000000" font-family="DevanagariSangamMN-Bold, Devanagari Sangam MN" font-size="20" font-weight="bold" letter-spacing="0.0373333357">
                <text id="256">
                    <tspan x="37.4205625" y="19">256</tspan>
                </text>
                <g id="10.2357-2" transform="translate(0.000000, 25.000000)">
                    <text id="10.2357">
                        <tspan x="0.423044262" y="19">10.2357</tspan>
                    </text>
                </g>
            </g>
        </g>
    </g>
</svg>