<?xml version="1.0" encoding="UTF-8" standalone="no"?>
<!-- Created with Inkscape (http://www.inkscape.org/) -->

<svg
   xmlns:dc="http://purl.org/dc/elements/1.1/"
   xmlns:cc="http://creativecommons.org/ns#"
   xmlns:rdf="http://www.w3.org/1999/02/22-rdf-syntax-ns#"
   xmlns:svg="http://www.w3.org/2000/svg"
   xmlns="http://www.w3.org/2000/svg"
   xmlns:sodipodi="http://sodipodi.sourceforge.net/DTD/sodipodi-0.dtd"
   xmlns:inkscape="http://www.inkscape.org/namespaces/inkscape"
   width="112.08112mm"
   height="47.010883mm"
   viewBox="0 0 397.13784 166.574"
   id="svg4259"
   version="1.1"
   inkscape:version="0.91 r13725"
   sodipodi:docname="indigo-logo-en.svg">
  <defs
     id="defs4261" />
  <sodipodi:namedview
     id="base"
     pagecolor="#ffffff"
     bordercolor="#666666"
     borderopacity="1.0"
     inkscape:pageopacity="0.0"
     inkscape:pageshadow="2"
     inkscape:zoom="1.979899"
     inkscape:cx="220.16775"
     inkscape:cy="126.49167"
     inkscape:document-units="px"
     inkscape:current-layer="layer1"
     showgrid="false"
     borderlayer="true"
     fit-margin-top="0"
     fit-margin-left="0"
     fit-margin-right="0"
     fit-margin-bottom="0"
     inkscape:window-width="1920"
     inkscape:window-height="994"
     inkscape:window-x="0"
     inkscape:window-y="1"
     inkscape:window-maximized="1" />
  <metadata
     id="metadata4264">
    <rdf:RDF>
      <cc:Work
         rdf:about="">
        <dc:format>image/svg+xml</dc:format>
        <dc:type
           rdf:resource="http://purl.org/dc/dcmitype/StillImage" />
        <dc:title></dc:title>
      </cc:Work>
    </rdf:RDF>
  </metadata>
  <g
     inkscape:label="Layer 1"
     inkscape:groupmode="layer"
     id="layer1"
     transform="translate(-141.43108,-140.50378)">
    <g
       transform="translate(-65.975073,32.680776)"
       id="g4212"
       style="fill:#ffffff">
      <path
         style="fill:#ffffff"
         inkscape:connector-curvature="0"
         d="m 292.917,150.667 c 2.083,0 4.054,-1.555 4.054,-3.803 0,-2.161 -1.989,-3.804 -3.891,-3.804 -2.421,0 -4.496,1.902 -4.496,3.718 -10e-4,2.139 1.999,3.889 4.333,3.889 z"
         id="path4214" />
      <path
         style="fill:#ffffff"
         inkscape:connector-curvature="0"
         d="m 455.928,146.202 c 0,2.68 2.681,4.063 4.323,4.063 1.491,0 4.064,-1.729 4.064,-3.978 0,-2.161 -1.989,-3.804 -3.892,-3.804 -2.42,0 -4.495,1.903 -4.495,3.719 z"
         id="path4216" />
      <path
         style="fill:#ffffff"
         inkscape:connector-curvature="0"
         d="m 426.242,238.921 c 13.461,0 29.304,-9.096 29.304,-19.209 0,-3.645 -4.206,-6.309 -10.796,-6.309 -12.198,0 -24.084,12.846 -24.084,13.599 0,0 12.167,-11.356 23.945,-11.356 5.89,0 8.271,2.103 8.271,4.207 0,5.363 -11.848,11.076 -21.732,11.076 -14.582,0 -30.286,-10.62 -30.286,-30.285 0,-24.506 30.345,-63.041 37.856,-71.229 15.563,-16.966 27.622,-21.592 27.622,-21.592 -14.313,0.196 -44.458,30.211 -61.299,61.24 -0.933,-4.51 -4.443,-7.959 -10.979,-7.959 -9.531,0 -17.77,5.785 -23.738,13.143 0.025,-0.041 0.05,-0.08 0.05,-0.08 0,0 -25.477,32.152 -31.646,32.152 -2.313,0 -3.862,-1.398 -3.862,-5.297 0,-8.833 17.386,-27.902 17.386,-33.932 0,-3.224 -1.752,-5.712 -6.099,-5.712 -9.955,0 -41.846,39.435 -43.255,39.435 -1.473,0 15.137,-23.369 19.56,-29.725 3.365,-4.837 3.061,-9.378 0.678,-9.378 -0.125,0 -0.258,0.018 -0.393,0.045 -3.681,0.118 -17.75,17.771 -27.868,26.849 -8.875,7.961 -12.937,10.588 -19.211,10.588 -5.679,0 -8.413,-5.399 -8.413,-12.129 0,-17.737 18.174,-26.035 12.302,-25.832 -4.431,0.154 -11.18,15.842 -37.68,16.157 -25.026,0.298 -33.651,-14.021 -34.352,-14.021 -1.542,0 12.339,21.032 32.109,21.172 18.717,0.133 27.525,-12.787 28.787,-12.787 0.561,0 -12.312,10.824 -12.312,25.126 0,6.87 3.155,12.619 10.096,12.619 9.567,0 23.855,-12.075 35.546,-24.259 3.298,-3.437 6.456,-6.845 9.283,-9.957 -8.105,11.517 -18.156,26.092 -18.156,29.757 0,2.734 2.126,4.047 3.95,4.047 8.875,0 30.875,-33.931 37.133,-33.931 10.99,0 -3.856,17.317 -3.856,25.169 0,5.609 3.091,9.012 8.349,9.012 6.054,0 23.07,-22.001 25.531,-25.083 -2.43,5.036 -3.776,9.981 -3.776,13.764 0,7.851 4.312,11.568 10.621,11.568 9.498,0 18.004,-7.798 24.14,-16.025 -1.254,4.825 -1.951,9.474 -1.951,13.817 -0.005,17.103 13.175,31.545 33.225,31.545 z m -45.849,-39.33 c -6.17,0 -8.729,-3.786 -8.729,-11.462 0,-9.983 11.213,-24.426 22.399,-24.082 5.637,0.173 9.145,4.423 6.94,12.724 -1.137,4.289 -12.237,22.82 -20.61,22.82 z"
         id="path4218" />
      <path
         style="fill:#ffffff"
         inkscape:connector-curvature="0"
         d="m 495.083,161.25 c -7.8,0 -16.917,5.83 -23.754,13.408 -2.482,2.363 -5.584,5.403 -8.496,8.509 -8.998,9.597 -12.814,16.021 -18.969,16.021 -5.679,0 -8.832,-5.399 -8.832,-12.128 0,-17.737 19.093,-26.06 11.968,-26.06 -1.429,0 -5.463,3.585 -9.742,8.801 0.013,-0.024 0.024,-0.046 0.036,-0.068 -0.027,0.042 -0.069,0.102 -0.102,0.149 -1.066,1.304 -2.146,2.71 -3.206,4.186 -2.679,3.298 -6.854,8.134 -12.471,13.985 -10.096,10.516 -15.564,11.689 -15.564,11.042 0,0.981 8.045,-0.262 14.723,-6.94 2.789,-2.789 5.25,-5.643 7.371,-8.349 -2.238,4.505 -3.739,9.072 -3.739,13.071 0,6.87 3.154,12.619 10.095,12.619 10.525,0 19.345,-12.881 29.466,-24.003 -1.783,3.636 -2.834,7.257 -2.834,10.525 0,7.572 1.925,13.51 12.06,13.51 8.308,0 16.933,-6.54 16.933,-6.54 0.303,0 -5.124,13.808 -17.774,30.764 -9.929,13.307 -27.344,31.889 -44.767,31.889 -12.479,0 -22.148,-5.679 -22.148,-14.933 0,-10.041 6.034,-12.707 5.333,-12.707 -1.402,0 -9.357,7.194 -9.357,16.493 0,11.357 9.374,19.903 21.843,19.903 26.18,0 44.225,-27.735 51.937,-38.312 5.744,-7.88 20.705,-33.586 20.87,-38.167 0.042,-1.167 -0.625,-2.228 -1.819,-2.228 -2.788,0 -12.891,9.812 -20.91,10.158 -6.905,0.298 -6.939,-5.659 -6.939,-7.867 0,-12.9 12.65,-25.309 21.873,-25.309 6.87,0 9.324,4.837 9.324,9.184 0,10.061 -10.622,9.778 -8.903,9.778 4.101,0 17.948,-2.031 17.948,-18.331 -0.004,-4.629 -4.057,-12.053 -11.454,-12.053 z"
         id="path4220" />
      <path
         style="fill:#ffffff"
         inkscape:connector-curvature="0"
         d="m 571.633,184.456 c -6.921,0 -12.589,-1.61 -17.107,-3.754 0.527,-1.918 0.817,-3.744 0.817,-5.395 0,-8.413 -3.509,-14.021 -10.938,-14.021 -16.687,0 -33.932,15.844 -33.932,32.81 0,7.852 4.901,15.154 13.026,15.154 12.323,0 24.139,-12.305 29.227,-23.609 5.367,3.725 12.16,6.553 19.683,6.553 19.695,0 32.135,-21.631 32.135,-26.361 0,-0.366 -10.884,18.623 -32.911,18.623 z m -41.389,16.089 c -6.17,0 -8.693,-4.627 -8.693,-10.516 0,-11.265 10.074,-25.799 21.873,-25.799 4.768,0 8.412,3.412 8.412,10.796 0,1.287 -0.173,2.625 -0.484,3.984 -7.405,-4.403 -10.818,-9.753 -10.818,-8.975 0,3.005 3.527,8.612 9.33,13.434 -3.812,8.774 -12.454,17.076 -19.62,17.076 z"
         id="path4222" />
      <path
         style="fill:#ffffff"
         inkscape:connector-curvature="0"
         d="m 437.294,169.732 c 0.16,-0.248 0.23,-0.385 0.205,-0.399 0,0 -0.071,0.144 -0.205,0.399 z"
         id="path4224" />
    </g>
  </g>
</svg>
