<?xml version="1.0" encoding="UTF-8" standalone="no"?>
<svg
   xmlns:dc="http://purl.org/dc/elements/1.1/"
   xmlns:cc="http://creativecommons.org/ns#"
   xmlns:rdf="http://www.w3.org/1999/02/22-rdf-syntax-ns#"
   xmlns:svg="http://www.w3.org/2000/svg"
   xmlns="http://www.w3.org/2000/svg"
   xmlns:sodipodi="http://sodipodi.sourceforge.net/DTD/sodipodi-0.dtd"
   xmlns:inkscape="http://www.inkscape.org/namespaces/inkscape"
   enable-background="new 0 0 128 128"
   height="128px"
   id="Layer_1"
   version="1.1"
   viewBox="0 0 128 128"
   width="128px"
   xml:space="preserve"
   inkscape:version="0.91 r13725"
   sodipodi:docname="1455724821_social-instagram-square1.svg"><metadata
     id="metadata4208"><rdf:RDF><cc:Work
         rdf:about=""><dc:format>image/svg+xml</dc:format><dc:type
           rdf:resource="http://purl.org/dc/dcmitype/StillImage" /></cc:Work></rdf:RDF></metadata><defs
     id="defs4206" /><sodipodi:namedview
     pagecolor="#ffffff"
     bordercolor="#666666"
     borderopacity="1"
     objecttolerance="10"
     gridtolerance="10"
     guidetolerance="10"
     inkscape:pageopacity="0"
     inkscape:pageshadow="2"
     inkscape:window-width="1205"
     inkscape:window-height="861"
     id="namedview4204"
     showgrid="false"
     inkscape:zoom="2.8284271"
     inkscape:cx="76.164682"
     inkscape:cy="82.52408"
     inkscape:window-x="377"
     inkscape:window-y="116"
     inkscape:window-maximized="0"
     inkscape:current-layer="Layer_1" /><g
     id="g4196"><path
       d="M 0 0 L 0 128 L 128 128 L 128 0 L 0 0 z M 30.056641 20 L 97.941406 20 C 103.47541 20 108.00095 24.525641 108.00195 30.056641 L 108.00195 97.943359 C 108.00195 103.47536 103.47436 108 97.943359 108 L 30.056641 108 C 24.523641 108 20 103.47536 20 97.943359 L 20 30.056641 C 20 24.525641 24.523641 20 30.056641 20 z M 84.322266 30.476562 C 82.478266 30.476562 80.96875 31.984125 80.96875 33.828125 L 80.96875 43.886719 C 80.96875 45.731719 82.478266 47.240234 84.322266 47.240234 L 94.378906 47.240234 C 96.224906 47.240234 97.732422 45.730719 97.732422 43.886719 L 97.732422 33.828125 C 97.732422 31.984125 96.224859 30.476562 94.380859 30.476562 L 84.322266 30.476562 z M 64 46.958984 C 57.108 46.958984 51.166688 51.019953 48.429688 56.876953 C 47.397687 59.083953 46.817359 61.543625 46.818359 64.140625 C 46.818359 73.629625 54.511 81.320312 64 81.320312 C 73.489 81.320313 81.181641 73.629625 81.181641 64.140625 C 81.181641 61.543625 80.601313 59.083953 79.570312 56.876953 C 76.832313 51.019953 70.893 46.958984 64 46.958984 z M 90.265625 56.875 C 90.908625 59.212 91.240234 61.649672 91.240234 64.138672 C 91.240234 71.415672 88.406719 78.254391 83.261719 83.400391 C 78.117719 88.545391 71.277953 91.376953 64.001953 91.376953 C 56.725953 91.376953 49.885234 88.546391 44.740234 83.400391 C 39.594234 78.256391 36.761719 71.416625 36.761719 64.140625 C 36.761719 61.650625 37.093328 59.213953 37.736328 56.876953 L 30.265625 56.876953 L 30.265625 95.009766 C 30.265625 96.392766 31.396297 97.523438 32.779297 97.523438 L 95.216797 97.523438 C 96.601797 97.523438 97.732422 96.392766 97.732422 95.009766 L 97.734375 95.009766 L 97.734375 56.875 L 90.265625 56.875 z "
       id="rect4198"
       style="fill:#ffffff" /></g><g
     id="g4200" /></svg>