<?xml version="1.0" encoding="UTF-8" standalone="no"?>
<!-- Created with sK1/UniConvertor (http://sk1project.org/) -->

<svg
   xmlns:dc="http://purl.org/dc/elements/1.1/"
   xmlns:cc="http://creativecommons.org/ns#"
   xmlns:rdf="http://www.w3.org/1999/02/22-rdf-syntax-ns#"
   xmlns:svg="http://www.w3.org/2000/svg"
   xmlns="http://www.w3.org/2000/svg"
   xmlns:sodipodi="http://sodipodi.sourceforge.net/DTD/sodipodi-0.dtd"
   xmlns:inkscape="http://www.inkscape.org/namespaces/inkscape"
   width="530.20587pt"
   height="119.80991pt"
   viewBox="0 0 530.20587 119.80991"
   id="svg3039"
   version="1.1"
   inkscape:version="0.91 r13725"
   sodipodi:docname="indigo_logo_white.svg"
   style="fill-rule:evenodd">
  <metadata
     id="metadata3053">
    <rdf:RDF>
      <cc:Work
         rdf:about="">
        <dc:format>image/svg+xml</dc:format>
        <dc:type
           rdf:resource="http://purl.org/dc/dcmitype/StillImage" />
        <dc:title></dc:title>
      </cc:Work>
    </rdf:RDF>
  </metadata>
  <defs
     id="defs3051" />
  <sodipodi:namedview
     pagecolor="#ffffff"
     bordercolor="#666666"
     borderopacity="1"
     objecttolerance="10"
     gridtolerance="10"
     guidetolerance="10"
     inkscape:pageopacity="0"
     inkscape:pageshadow="2"
     inkscape:window-width="999"
     inkscape:window-height="663"
     id="namedview3049"
     showgrid="false"
     inkscape:zoom="0.36394302"
     inkscape:cx="336.4044"
     inkscape:cy="143.5183"
     inkscape:window-x="237"
     inkscape:window-y="62"
     inkscape:window-maximized="0"
     inkscape:current-layer="svg3039"
     fit-margin-top="0"
     fit-margin-left="0"
     fit-margin-right="0"
     fit-margin-bottom="0" />
  <g
     id="g3041"
     style="fill:#ffffff"
     transform="matrix(0.46726626,0,0,0.46726626,-13.323514,-130.53287)">
    <g
       id="g3043"
       style="fill:#ffffff">
      <g
         id="g3045"
         style="fill:#ffffff">
        <path
           style="fill:#ffffff;stroke:#273785;stroke-width:0.00283465"
           d="m 99.8845,334.83 c 25.7295,0 48.3885,10.964 61.6345,27.591 12.262,-6.12 24.873,-7.939 35.667,-4.531 -9.46,0.137 -20.14,4.555 -30.168,12.729 4.368,7.865 6.808,16.625 6.808,25.859 0,3.558 -0.369,7.037 -1.063,10.431 -2.466,-9.835 -8.026,-18.844 -15.884,-26.428 -0.988,1.135 -1.963,2.308 -2.921,3.522 -20.425,25.899 -25.503,59.955 -11.302,76.034 14.2,16.074 42.291,8.089 62.739,-17.824 1.757,-2.227 3.399,-4.516 4.926,-6.846 -0.43,-4.423 -0.653,-8.92 -0.653,-13.48 0,-56.532 33.972,-103.617 78.902,-113.874 -32.217,20.678 -54.396,63.907 -54.396,113.876 0,49.971 22.182,93.192 54.399,113.87 -39.495,-9.014 -70.518,-46.483 -77.449,-93.812 -1.021,1.839 -2.108,3.668 -3.263,5.479 -21.068,33.039 -56.441,48.192 -78.987,33.838 -22.551,-14.359 -23.753,-52.799 -2.693,-85.825 5.878,-9.218 12.869,-17.042 20.385,-23.222 -14.379,-9.59 -33.262,-15.409 -53.9444,-15.409 -26.0072,0 -49.1671,9.198 -64.1065,23.527 8.5102,-26.215 37.2374,-45.505 71.3694,-45.505 z m 991.9555,0 c -20.45,0 -38.96,6.923 -52.35,18.11 -14.08,-11.678 -32.51,-18.757 -52.7,-18.757 -44.208,0 -80.053,33.948 -80.053,75.812 0,41.867 35.845,75.814 80.053,75.814 44.21,0 80.05,-33.947 80.05,-75.814 0,-15.732 -5.06,-30.345 -13.73,-42.459 13.1,-6.768 28.93,-10.728 45.99,-10.728 26.01,0 49.17,9.198 64.11,23.527 -8.51,-26.215 -37.24,-45.505 -71.37,-45.505 z m -61.82,27.816 c -7.66,9.714 -12.12,21.339 -12.12,33.832 0,3.558 0.36,7.037 1.06,10.431 2.84,-11.342 9.8,-21.585 19.65,-29.809 4.32,9.743 6.79,20.959 6.79,32.895 0,37.451 -24.23,67.825 -54.093,67.825 -29.869,0 -54.095,-30.374 -54.095,-67.825 0,-37.449 24.226,-67.823 54.095,-67.823 15.173,0 28.893,7.846 38.713,20.474 z M 531.428,417.24 c 12.242,-24.254 15.907,-49.985 11.771,-71.931 -11.134,-0.158 -22.068,1.462 -31.993,4.976 -10.056,3.543 -30.799,13.692 -46.595,33.718 -15.797,20.026 -25.503,59.955 -11.302,76.034 14.2,16.074 42.291,8.089 62.739,-17.824 8.428,-11.638 11.782,-17.995 15.38,-24.973 z m -91.902,64.024 c -22.715,-14.087 -23.752,-52.799 -2.692,-85.825 16.023,-25.128 53.096,-54.537 103.958,-59.802 -5.16,-16.478 -15.188,-30.054 -29.718,-38.049 -27.304,-15.025 -60.165,-1.508 -77.629,10.425 -32.217,20.678 -54.396,63.907 -54.396,113.876 0,49.971 22.183,93.192 54.399,113.87 -43.692,-9.972 -77.015,-54.766 -78.824,-109.209 l -50.697,0 c -1.717,25 -17.155,46.951 -40.159,60.766 12.93,-17.093 20.86,-40.106 20.86,-65.426 0,-25.321 -7.93,-48.341 -20.861,-65.434 22.32,13.402 37.517,34.471 39.969,58.549 l 50.99,0 c 1.719,-32.468 15.467,-60.631 34.083,-81.422 28.588,-31.922 85.723,-71.505 131.806,-46.145 18.316,10.078 30.016,25.481 34.454,47.386 1.556,-0.018 3.125,-0.023 4.705,0.006 25.655,0.458 48.264,11.245 61.526,27.646 12.295,-6.163 24.95,-8.004 35.775,-4.586 -9.475,0.138 -20.173,4.569 -30.214,12.767 4.396,7.821 6.855,16.555 6.855,25.821 0,3.558 -0.37,7.037 -1.064,10.431 -2.681,-10.689 -7.696,-20.097 -14.357,-28.137 -1.516,1.652 -3.001,3.397 -4.448,5.231 -20.426,25.899 -25.503,59.955 -11.302,76.034 14.201,16.074 42.291,8.089 62.739,-17.824 1.757,-2.227 3.399,-4.516 4.926,-6.847 -0.431,-4.422 -0.653,-8.919 -0.653,-13.479 0,-56.532 33.972,-103.617 78.901,-113.874 -32.216,20.678 -54.395,63.907 -54.395,113.876 0,49.971 22.182,93.192 54.399,113.87 -39.496,-9.014 -70.518,-46.484 -77.449,-93.812 -1.021,1.839 -2.107,3.668 -3.263,5.479 -21.069,33.039 -56.44,48.192 -78.987,33.838 -22.551,-14.359 -23.753,-52.799 -2.693,-85.825 6.678,-10.474 14.794,-19.149 23.483,-25.655 -14.421,-12.707 -33.448,-20.697 -52.85,-23.432 1.908,22.711 -5.454,47.159 -16.505,72.045 -12.965,29.194 -60.569,87.741 -100.672,62.867 z m 466.842,-72.355 c -1.606,12.535 -6.391,25.921 -14.424,38.517 -21.069,33.039 -56.442,48.192 -78.988,33.838 -22.55,-14.359 -23.752,-52.799 -2.692,-85.825 5.877,-9.218 12.868,-17.042 20.384,-23.222 -14.379,-9.59 -33.261,-15.409 -53.944,-15.409 -26.008,0 -49.168,9.198 -64.107,23.527 8.511,-26.215 37.238,-45.505 71.371,-45.505 25.729,0 48.388,10.964 61.633,27.591 12.261,-6.12 24.873,-7.939 35.667,-4.531 -9.46,0.137 -20.141,4.555 -30.168,12.729 4.368,7.865 6.808,16.625 6.808,25.859 0,3.558 -0.369,7.037 -1.063,10.431 -2.466,-9.835 -8.026,-18.844 -15.884,-26.428 -0.988,1.135 -1.963,2.308 -2.92,3.522 -20.426,25.899 -25.504,59.955 -11.303,76.034 14.2,16.074 42.291,8.089 62.739,-17.824 8.171,-10.354 13.881,-22.013 16.891,-33.304 z"
           id="path3047"
           inkscape:connector-curvature="0" />
      </g>
    </g>
  </g>
</svg>
