<?xml version="1.0" encoding="UTF-8" standalone="no"?>
<svg
   xmlns:dc="http://purl.org/dc/elements/1.1/"
   xmlns:cc="http://creativecommons.org/ns#"
   xmlns:rdf="http://www.w3.org/1999/02/22-rdf-syntax-ns#"
   xmlns:svg="http://www.w3.org/2000/svg"
   xmlns="http://www.w3.org/2000/svg"
   xmlns:sodipodi="http://sodipodi.sourceforge.net/DTD/sodipodi-0.dtd"
   xmlns:inkscape="http://www.inkscape.org/namespaces/inkscape"
   enable-background="new 0 0 128 128"
   height="128px"
   id="Layer_1"
   version="1.1"
   viewBox="0 0 128 128"
   width="128px"
   xml:space="preserve"
   inkscape:version="0.91 r13725"
   sodipodi:docname="youtube.svg"><metadata
     id="metadata3510"><rdf:RDF><cc:Work
         rdf:about=""><dc:format>image/svg+xml</dc:format><dc:type
           rdf:resource="http://purl.org/dc/dcmitype/StillImage" /></cc:Work></rdf:RDF></metadata><defs
     id="defs3508" /><sodipodi:namedview
     pagecolor="#ffffff"
     bordercolor="#666666"
     borderopacity="1"
     objecttolerance="10"
     gridtolerance="10"
     guidetolerance="10"
     inkscape:pageopacity="0"
     inkscape:pageshadow="2"
     inkscape:window-width="859"
     inkscape:window-height="711"
     id="namedview3506"
     showgrid="false"
     inkscape:zoom="4"
     inkscape:cx="77.510714"
     inkscape:cy="41.991901"
     inkscape:window-x="328"
     inkscape:window-y="121"
     inkscape:window-maximized="0"
     inkscape:current-layer="Layer_1" /><g
     id="g3500"
     style="fill:#ffffff"><path
       d="M 0 0 L 0 128 L 128 128 L 128 0 L 0 0 z M 63.980469 33.052734 L 64.019531 33.052734 C 64.019531 33.052734 82.494641 33.052359 94.806641 33.943359 C 96.524641 34.148359 100.27505 34.165875 103.62305 37.671875 C 106.26205 40.340875 107.12109 46.404297 107.12109 46.404297 C 107.12109 46.404297 108 53.524484 108 60.646484 L 108 67.324219 C 108 74.445219 107.12305 81.566406 107.12305 81.566406 C 107.12305 81.566406 106.26305 87.628781 103.62305 90.300781 C 100.27705 93.806781 96.527641 93.824297 94.806641 94.029297 C 82.490641 94.920297 64.001953 94.947266 64.001953 94.947266 C 64.001953 94.947266 41.119125 94.7385 34.078125 94.0625 C 32.121125 93.6945 27.724953 93.806828 24.376953 90.298828 C 21.737953 87.628828 20.878906 81.566406 20.878906 81.566406 C 20.878906 81.566406 20 74.443219 20 67.324219 L 20 60.646484 C 20 53.524484 20.878906 46.404297 20.878906 46.404297 C 20.878906 46.404297 21.737953 40.340875 24.376953 37.671875 C 27.723953 34.164875 31.472359 34.147359 33.193359 33.943359 C 45.506359 33.052359 63.980469 33.052734 63.980469 33.052734 z M 53.798828 49.53125 L 53.802734 76.570312 L 79.798828 63.095703 L 53.798828 49.53125 z "
       id="rect3502"
       style="fill:#ffffff" /></g></svg>